<svg xmlns="http://www.w3.org/2000/svg" width="63" height="54"><path d="M59.8 47.591h-1.15v-1.159a3.209 3.209 0 00-3.2-3.205H44.56a3.209 3.209 0 00-3.2 3.205v1.159h-1.15a3.208 3.208 0 00-3.2 3.2v2.182a1.024 1.024 0 001.02 1.023h23.95A1.024 1.024 0 0063 52.973V50.8a3.2 3.2 0 00-3.2-3.209zm-16.39-1.159a1.152 1.152 0 011.15-1.159h10.89a1.152 1.152 0 011.15 1.159v1.159H43.41v-1.159zm17.55 5.522H39.05V50.8a1.161 1.161 0 011.16-1.159H59.8a1.161 1.161 0 011.16 1.159v1.159zM39.05 25.573l-.05.048a3.226 3.226 0 000 4.532 3.2 3.2 0 004.53 0l6.15-6.171a3.2 3.2 0 10-4.52-4.532l-.05.049-2.36-2.372a2.132 2.132 0 00-.54-2.079L35.6 8.426a2.1 2.1 0 00-2.07-.536l-2.37-2.372.05-.048a3.2 3.2 0 000-4.532 3.192 3.192 0 00-4.52 0l-6.16 6.171a3.2 3.2 0 000 4.531 3.192 3.192 0 004.52 0l.05-.048 2.37 2.372a1.911 1.911 0 00-.09.584 2.1 2.1 0 00.62 1.5l.28.274-2.12 2.12a3.244 3.244 0 00-.93 2.47L.94 45.262a3.2 3.2 0 104.52 4.532l24.3-24.35c.06 0 .13.009.2.009a3.173 3.173 0 002.26-.937l2.12-2.12.27.274a2.1 2.1 0 001.49.62 2.167 2.167 0 00.59-.083zm8.37-5.015a1.158 1.158 0 01.82 1.978l-6.16 6.17a1.147 1.147 0 01-1.63 0 1.162 1.162 0 010-1.638l6.15-6.171a1.175 1.175 0 01.82-.339zm-6.92 3.569l-2.18-2.185 3.17-3.181 2.18 2.184zM21.97 10.194a1.164 1.164 0 010-1.639l6.16-6.171a1.16 1.16 0 011.64 1.639l-6.16 6.171a1.161 1.161 0 01-1.64 0zm7.75-3.23l2.18 2.185-3.18 3.182-2.18-2.185zM4.02 48.342a1.16 1.16 0 11-1.64-1.639l23.73-23.785c.02.017.03.034.05.051l1.54 1.542c.02.017.03.031.05.046zm26.76-25.277a1.161 1.161 0 01-1.64 0l-1.54-1.542a1.165 1.165 0 010-1.64l2.12-2.12 3.17 3.182zm-1.33-8.469a.048.048 0 01-.02-.048.051.051 0 01.02-.048l4.61-4.628a.082.082 0 01.05-.02.064.064 0 01.05.02l6.61 6.622a.064.064 0 010 .1l-4.62 4.628a.057.057 0 01-.05.02.078.078 0 01-.05-.02z" fill="#ffc222" fill-rule="evenodd"/></svg>