<svg xmlns="http://www.w3.org/2000/svg" width="47" height="44"><path d="M42.99 8.321H31.57V5.93a2.4 2.4 0 001.48-1.487 2.464 2.464 0 00-1.43-3.128 25.728 25.728 0 00-16.24 0 2.464 2.464 0 00-1.43 3.129 2.382 2.382 0 001.48 1.486v2.391H4.01A4.066 4.066 0 000 12.43v27.461A4.066 4.066 0 004.01 44h38.98A4.066 4.066 0 0047 39.891V12.43a4.066 4.066 0 00-4.01-4.109zM15.9 2.783a24.226 24.226 0 0115.2 0 .89.89 0 01.52 1.131.863.863 0 01-.81.586.806.806 0 01-.29-.053 22.579 22.579 0 00-14.04 0 .856.856 0 01-1.1-.532.891.891 0 01.52-1.132zm1.05 3.148l.05-.016a21.083 21.083 0 0113 0l.05.015v2.391h-13.1v-2.39zm-15.43 6.5a2.524 2.524 0 012.49-2.548h38.98a2.524 2.524 0 012.49 2.548v7.489a9.108 9.108 0 01-8.99 9.206H26.7v-.884a2.419 2.419 0 00-2.39-2.445h-1.62a2.419 2.419 0 00-2.39 2.445v.884h-9.79a9.108 9.108 0 01-8.99-9.206v-7.49zm23.65 17.475a.869.869 0 01-.86.884h-1.62a.878.878 0 01-.87-.884v-1.664a.878.878 0 01.87-.884h1.62a.869.869 0 01.86.884v1.664zm-3.35 2.279a2.362 2.362 0 00.87.165h1.62a2.272 2.272 0 00.86-.165v1.05a.87.87 0 01-.86.884h-1.62a.878.878 0 01-.87-.884v-1.05zm23.66 7.707a2.524 2.524 0 01-2.49 2.548H4.01a2.524 2.524 0 01-2.49-2.548V25.5a10.469 10.469 0 008.99 5.188h9.79v2.549a2.419 2.419 0 002.39 2.444h1.62a2.419 2.419 0 002.39-2.444v-2.549h9.79a10.469 10.469 0 008.99-5.188v14.394z" fill="#ffc222" fill-rule="evenodd"/></svg>