<svg xmlns="http://www.w3.org/2000/svg" width="57" height="54"><path d="M52.08 25.513v-1.046h2.03a.92.92 0 00.92-.923V20.53h1.05a.92.92 0 00.92-.923v-2.953a.925.925 0 00-.47-.8L28.96.104a.932.932 0 00-.92 0L.47 15.854a.923.923 0 00-.47.8v2.953a.92.92 0 00.92.923h1.05v3.014a.92.92 0 00.92.923h2.03v1.046a1.905 1.905 0 00.99 1.668v17.1H2.89a.921.921 0 00-.92.924v3.014H.92a.92.92 0 00-.92.923v3.938a.921.921 0 00.92.923h55.16a.921.921 0 00.92-.923v-3.938a.92.92 0 00-.92-.923h-1.05V45.2a.921.921 0 00-.92-.924h-3.02v-17.1a1.905 1.905 0 00.99-1.663zm-1.85 0a.063.063 0 01-.06.062h-3.94a.057.057 0 01-.06-.062v-1.046h4.06v1.046zm-8.99 18.765v-17.1a1.905 1.905 0 00.99-1.668v-1.046h2.09v1.046a1.916 1.916 0 00.98 1.668v17.1h-4.06zm-3.94 0V27.42h2.1v16.858h-2.1zm-5.91 0v-17.1a1.905 1.905 0 00.99-1.668v-1.046h2.09v1.046a1.905 1.905 0 00.99 1.668v17.1h-4.07zm-3.94 0V27.42h2.1v16.858h-2.1zm-5.91 0v-17.1a1.905 1.905 0 00.99-1.668v-1.046h2.09v1.046a1.905 1.905 0 00.99 1.668v17.1h-4.07zm-3.94 0V27.42h2.1v16.858h-2.1zm-5.9 0v-17.1a1.916 1.916 0 00.98-1.668v-1.046h2.09v1.046a1.905 1.905 0 00.99 1.668v17.1H11.7zm8.98-19.811v1.046a.063.063 0 01-.06.062h-3.94a.063.063 0 01-.06-.062v-1.046h4.06zm9.85 0v1.046a.063.063 0 01-.06.062h-3.94a.063.063 0 01-.06-.062v-1.046h4.06zm9.85 0v1.046a.063.063 0 01-.06.062h-3.94a.063.063 0 01-.06-.062v-1.046h4.06zM1.85 17.189L28.5 1.966l26.65 15.223v1.5H1.85v-1.5zm1.97 3.341h49.36v2.092H3.82V20.53zm7.01 3.937v1.046a.057.057 0 01-.06.062H6.83a.063.063 0 01-.06-.062v-1.046h4.06zM7.76 27.42h2.09v16.858H7.76V27.42zm47.39 24.734H1.85v-2.092h53.3v2.092zm-1.97-3.938H3.82v-2.092h49.36v2.092zm-6.03-3.938V27.42h2.09v16.858h-2.09z" fill="#ffc222" fill-rule="evenodd"/></svg>