<svg width="169" height="23" viewBox="0 0 169 23" fill="none" xmlns="http://www.w3.org/2000/svg">
<path d="M18.8965 16.7266L22.1777 0.671875H25.8545L20.9326 22H17.3877L13.3301 6.42871L9.18457 22H5.625L0.703125 0.671875H4.37988L7.69043 16.6973L11.7627 0.671875H14.8682L18.8965 16.7266ZM32.4756 22H28.7842V0.671875H32.4756V22ZM48.1787 16.5068C48.1787 15.5693 47.8467 14.8467 47.1826 14.3389C46.5283 13.8311 45.3418 13.3184 43.623 12.8008C41.9043 12.2832 40.5371 11.707 39.5215 11.0723C37.5781 9.85156 36.6064 8.25977 36.6064 6.29688C36.6064 4.57813 37.3047 3.16211 38.7012 2.04883C40.1074 0.935547 41.9287 0.378906 44.165 0.378906C45.6494 0.378906 46.9727 0.652344 48.1348 1.19922C49.2969 1.74609 50.21 2.52734 50.874 3.54297C51.5381 4.54883 51.8701 5.66699 51.8701 6.89746H48.1787C48.1787 5.78418 47.8271 4.91504 47.124 4.29004C46.4307 3.65527 45.4346 3.33789 44.1357 3.33789C42.9248 3.33789 41.9824 3.59668 41.3086 4.11426C40.6445 4.63184 40.3125 5.35449 40.3125 6.28223C40.3125 7.06348 40.6738 7.71777 41.3965 8.24512C42.1191 8.7627 43.3105 9.27051 44.9707 9.76855C46.6309 10.2568 47.9639 10.8184 48.9697 11.4531C49.9756 12.0781 50.7129 12.8008 51.1816 13.6211C51.6504 14.4316 51.8848 15.3838 51.8848 16.4775C51.8848 18.2549 51.2012 19.6709 49.834 20.7256C48.4766 21.7705 46.6309 22.293 44.2969 22.293C42.7539 22.293 41.333 22.0098 40.0342 21.4434C38.7451 20.8672 37.7393 20.0762 37.0166 19.0703C36.3037 18.0645 35.9473 16.8926 35.9473 15.5547H39.6533C39.6533 16.7656 40.0537 17.7031 40.8545 18.3672C41.6553 19.0312 42.8027 19.3633 44.2969 19.3633C45.5859 19.3633 46.5527 19.1045 47.1973 18.5869C47.8516 18.0596 48.1787 17.3662 48.1787 16.5068ZM67.6025 12.4785H58.8428V19.041H69.082V22H55.1367V0.671875H68.9795V3.66016H58.8428V9.54883H67.6025V12.4785Z" fill="#FFC222"/>
<path d="M84.0967 15.6279H73.6523L71.2793 22H70.415L78.3984 0.671875H79.3652L87.3486 22H86.4844L84.0967 15.6279ZM73.9453 14.8369H83.8037L78.8818 1.62402L73.9453 14.8369ZM90.791 22V0.671875H96.6943C98.3447 0.671875 99.8389 1.0625 101.177 1.84375C102.515 2.625 103.564 3.72363 104.326 5.13965C105.088 6.5459 105.479 8.12305 105.498 9.87109V12.6396C105.498 14.417 105.122 16.0186 104.37 17.4443C103.628 18.8701 102.588 19.9834 101.25 20.7842C99.9121 21.585 98.418 21.9902 96.7676 22H90.791ZM91.582 1.46289V21.209H96.6943C98.1885 21.209 99.5459 20.8477 100.767 20.125C101.997 19.3926 102.959 18.377 103.652 17.0781C104.346 15.7695 104.697 14.3193 104.707 12.7275V9.98828C104.707 8.39648 104.365 6.95117 103.682 5.65234C103.008 4.35352 102.061 3.33789 100.84 2.60547C99.6289 1.86328 98.2861 1.48242 96.8115 1.46289H91.582ZM115.708 19.9199L116.133 21.209L116.558 19.9199L123.721 0.671875H124.585L116.616 22H115.649L107.681 0.671875H108.545L115.708 19.9199ZM129.404 22H128.613V0.671875H129.404V22ZM150.352 15.4668C150.146 17.6641 149.39 19.3535 148.081 20.5352C146.772 21.707 144.995 22.293 142.749 22.293C141.235 22.293 139.893 21.9121 138.721 21.1504C137.559 20.3789 136.655 19.29 136.011 17.8838C135.366 16.4678 135.039 14.8516 135.029 13.0352V9.73926C135.029 7.92285 135.347 6.30176 135.981 4.87598C136.616 3.44043 137.52 2.33203 138.691 1.55078C139.873 0.769531 141.226 0.378906 142.749 0.378906C144.976 0.378906 146.748 0.964844 148.066 2.13672C149.385 3.30859 150.146 4.98828 150.352 7.17578H149.561C149.336 5.21289 148.652 3.72363 147.51 2.70801C146.367 1.68262 144.78 1.16992 142.749 1.16992C140.679 1.16992 139.004 1.95117 137.725 3.51367C136.455 5.07617 135.82 7.1709 135.82 9.79785V12.9326C135.82 14.6123 136.104 16.1016 136.67 17.4004C137.236 18.6895 138.047 19.6953 139.102 20.418C140.166 21.1406 141.382 21.502 142.749 21.502C144.79 21.502 146.382 20.999 147.524 19.9932C148.677 18.9873 149.355 17.4785 149.561 15.4668H150.352ZM166.787 11.4238H156.094V21.209H168.281V22H155.303V0.671875H168.281V1.46289H156.094V10.6328H166.787V11.4238Z" fill="#212020"/>
</svg>
