<?xml version="1.0" encoding="utf-8"?><svg xmlns="http://www.w3.org/2000/svg" xmlns:xlink="http://www.w3.org/1999/xlink"><symbol viewBox="0 0 192 512" id="angle-left" xmlns="http://www.w3.org/2000/svg"><path d="M25.1 247.5l117.8-116c4.7-4.7 12.3-4.7 17 0l7.1 7.1c4.7 4.7 4.7 12.3 0 17L64.7 256l102.2 100.4c4.7 4.7 4.7 12.3 0 17l-7.1 7.1c-4.7 4.7-12.3 4.7-17 0L25 264.5c-4.6-4.7-4.6-12.3.1-17z"/></symbol><symbol viewBox="0 0 192 512" id="angle-right" xmlns="http://www.w3.org/2000/svg"><path d="M166.9 264.5l-117.8 116c-4.7 4.7-12.3 4.7-17 0l-7.1-7.1c-4.7-4.7-4.7-12.3 0-17L127.3 256 25.1 155.6c-4.7-4.7-4.7-12.3 0-17l7.1-7.1c4.7-4.7 12.3-4.7 17 0l117.8 116c4.6 4.7 4.6 12.3-.1 17z"/></symbol><symbol class="csvg-inline--fa cfa-bars cfa-w-14" viewBox="0 0 448 512" id="bars" xmlns="http://www.w3.org/2000/svg"><path d="M16 132h416c8.837 0 16-7.163 16-16V76c0-8.837-7.163-16-16-16H16C7.163 60 0 67.163 0 76v40c0 8.837 7.163 16 16 16zm0 160h416c8.837 0 16-7.163 16-16v-40c0-8.837-7.163-16-16-16H16c-8.837 0-16 7.163-16 16v40c0 8.837 7.163 16 16 16zm0 160h416c8.837 0 16-7.163 16-16v-40c0-8.837-7.163-16-16-16H16c-8.837 0-16 7.163-16 16v40c0 8.837 7.163 16 16 16z"/></symbol><symbol class="dsvg-inline--fa dfa-briefcase dfa-w-16" viewBox="0 0 512 512" id="briefcase" xmlns="http://www.w3.org/2000/svg"><path d="M320 336c0 8.84-7.16 16-16 16h-96c-8.84 0-16-7.16-16-16v-48H0v144c0 25.6 22.4 48 48 48h416c25.6 0 48-22.4 48-48V288H320v48zm144-208h-80V80c0-25.6-22.4-48-48-48H176c-25.6 0-48 22.4-48 48v48H48c-25.6 0-48 22.4-48 48v80h512v-80c0-25.6-22.4-48-48-48zm-144 0H192V96h128v32z"/></symbol><symbol class="esvg-inline--fa efa-check efa-w-16" viewBox="0 0 512 512" id="check" xmlns="http://www.w3.org/2000/svg"><path d="M173.898 439.404l-166.4-166.4c-9.997-9.997-9.997-26.206 0-36.204l36.203-36.204c9.997-9.998 26.207-9.998 36.204 0L192 312.69 432.095 72.596c9.997-9.997 26.207-9.997 36.204 0l36.203 36.204c9.997 9.997 9.997 26.206 0 36.204l-294.4 294.401c-9.998 9.997-26.207 9.997-36.204-.001z"/></symbol><symbol class="fsvg-inline--fa ffa-envelope ffa-w-16" viewBox="0 0 512 512" id="mail" xmlns="http://www.w3.org/2000/svg"><path d="M464 64H48C21.49 64 0 85.49 0 112v288c0 26.51 21.49 48 48 48h416c26.51 0 48-21.49 48-48V112c0-26.51-21.49-48-48-48zm0 48v40.805c-22.422 18.259-58.168 46.651-134.587 106.49-16.841 13.247-50.201 45.072-73.413 44.701-23.208.375-56.579-31.459-73.413-44.701C106.18 199.465 70.425 171.067 48 152.805V112h416zM48 400V214.398c22.914 18.251 55.409 43.862 104.938 82.646 21.857 17.205 60.134 55.186 103.062 54.955 42.717.231 80.509-37.199 103.053-54.947 49.528-38.783 82.032-64.401 104.947-82.653V400H48z"/></symbol><symbol class="gsvg-inline--fa gfa-map-marker-alt gfa-w-12" viewBox="0 0 384 512" id="marker" xmlns="http://www.w3.org/2000/svg"><path d="M172.268 501.67C26.97 291.031 0 269.413 0 192 0 85.961 85.961 0 192 0s192 85.961 192 192c0 77.413-26.97 99.031-172.268 309.67-9.535 13.774-29.93 13.773-39.464 0zM192 272c44.183 0 80-35.817 80-80s-35.817-80-80-80-80 35.817-80 80 35.817 80 80 80z"/></symbol><symbol class="hsvg-inline--fa hfa-phone-alt hfa-w-16" viewBox="0 0 512 512" id="phone" xmlns="http://www.w3.org/2000/svg"><path d="M497.39 361.8l-112-48a24 24 0 00-28 6.9l-49.6 60.6A370.66 370.66 0 01130.6 204.11l60.6-49.6a23.94 23.94 0 006.9-28l-48-112A24.16 24.16 0 00122.6.61l-104 24A24 24 0 000 48c0 256.5 207.9 464 464 464a24 24 0 0023.4-18.6l24-104a24.29 24.29 0 00-14.01-27.6z"/></symbol><symbol class="isvg-inline--fa ifa-quote-right ifa-w-16" viewBox="0 0 512 512" id="quote" xmlns="http://www.w3.org/2000/svg"><path d="M464 32H336c-26.5 0-48 21.5-48 48v128c0 26.5 21.5 48 48 48h80v64c0 35.3-28.7 64-64 64h-8c-13.3 0-24 10.7-24 24v48c0 13.3 10.7 24 24 24h8c88.4 0 160-71.6 160-160V80c0-26.5-21.5-48-48-48zm-288 0H48C21.5 32 0 53.5 0 80v128c0 26.5 21.5 48 48 48h80v64c0 35.3-28.7 64-64 64h-8c-13.3 0-24 10.7-24 24v48c0 13.3 10.7 24 24 24h8c88.4 0 160-71.6 160-160V80c0-26.5-21.5-48-48-48z"/></symbol><symbol viewBox="0 0 63 54" id="services1" xmlns="http://www.w3.org/2000/svg"><path d="M59.8 47.591h-1.15v-1.159a3.209 3.209 0 00-3.2-3.205H44.56a3.209 3.209 0 00-3.2 3.205v1.159h-1.15a3.208 3.208 0 00-3.2 3.2v2.182a1.024 1.024 0 001.02 1.023h23.95A1.024 1.024 0 0063 52.973V50.8a3.2 3.2 0 00-3.2-3.209zm-16.39-1.159a1.152 1.152 0 011.15-1.159h10.89a1.152 1.152 0 011.15 1.159v1.159H43.41v-1.159zm17.55 5.522H39.05V50.8a1.161 1.161 0 011.16-1.159H59.8a1.161 1.161 0 011.16 1.159v1.159zM39.05 25.573l-.05.048a3.226 3.226 0 000 4.532 3.2 3.2 0 004.53 0l6.15-6.171a3.2 3.2 0 10-4.52-4.532l-.05.049-2.36-2.372a2.132 2.132 0 00-.54-2.079L35.6 8.426a2.1 2.1 0 00-2.07-.536l-2.37-2.372.05-.048a3.2 3.2 0 000-4.532 3.192 3.192 0 00-4.52 0l-6.16 6.171a3.2 3.2 0 000 4.531 3.192 3.192 0 004.52 0l.05-.048 2.37 2.372a1.911 1.911 0 00-.09.584 2.1 2.1 0 00.62 1.5l.28.274-2.12 2.12a3.244 3.244 0 00-.93 2.47L.94 45.262a3.2 3.2 0 104.52 4.532l24.3-24.35c.06 0 .13.009.2.009a3.173 3.173 0 002.26-.937l2.12-2.12.27.274a2.1 2.1 0 001.49.62 2.167 2.167 0 00.59-.083zm8.37-5.015a1.158 1.158 0 01.82 1.978l-6.16 6.17a1.147 1.147 0 01-1.63 0 1.162 1.162 0 010-1.638l6.15-6.171a1.175 1.175 0 01.82-.339zm-6.92 3.569l-2.18-2.185 3.17-3.181 2.18 2.184zM21.97 10.194a1.164 1.164 0 010-1.639l6.16-6.171a1.16 1.16 0 011.64 1.639l-6.16 6.171a1.161 1.161 0 01-1.64 0zm7.75-3.23l2.18 2.185-3.18 3.182-2.18-2.185zM4.02 48.342a1.16 1.16 0 11-1.64-1.639l23.73-23.785c.02.017.03.034.05.051l1.54 1.542c.02.017.03.031.05.046zm26.76-25.277a1.161 1.161 0 01-1.64 0l-1.54-1.542a1.165 1.165 0 010-1.64l2.12-2.12 3.17 3.182zm-1.33-8.469a.048.048 0 01-.02-.048.051.051 0 01.02-.048l4.61-4.628a.082.082 0 01.05-.02.064.064 0 01.05.02l6.61 6.622a.064.064 0 010 .1l-4.62 4.628a.057.057 0 01-.05.02.078.078 0 01-.05-.02z" fill-rule="evenodd"/></symbol><symbol viewBox="0 0 57 54" id="services2" xmlns="http://www.w3.org/2000/svg"><path d="M52.08 25.513v-1.046h2.03a.92.92 0 00.92-.923V20.53h1.05a.92.92 0 00.92-.923v-2.953a.925.925 0 00-.47-.8L28.96.104a.932.932 0 00-.92 0L.47 15.854a.923.923 0 00-.47.8v2.953a.92.92 0 00.92.923h1.05v3.014a.92.92 0 00.92.923h2.03v1.046a1.905 1.905 0 00.99 1.668v17.1H2.89a.921.921 0 00-.92.924v3.014H.92a.92.92 0 00-.92.923v3.938a.921.921 0 00.92.923h55.16a.921.921 0 00.92-.923v-3.938a.92.92 0 00-.92-.923h-1.05V45.2a.921.921 0 00-.92-.924h-3.02v-17.1a1.905 1.905 0 00.99-1.663zm-1.85 0a.063.063 0 01-.06.062h-3.94a.057.057 0 01-.06-.062v-1.046h4.06v1.046zm-8.99 18.765v-17.1a1.905 1.905 0 00.99-1.668v-1.046h2.09v1.046a1.916 1.916 0 00.98 1.668v17.1h-4.06zm-3.94 0V27.42h2.1v16.858h-2.1zm-5.91 0v-17.1a1.905 1.905 0 00.99-1.668v-1.046h2.09v1.046a1.905 1.905 0 00.99 1.668v17.1h-4.07zm-3.94 0V27.42h2.1v16.858h-2.1zm-5.91 0v-17.1a1.905 1.905 0 00.99-1.668v-1.046h2.09v1.046a1.905 1.905 0 00.99 1.668v17.1h-4.07zm-3.94 0V27.42h2.1v16.858h-2.1zm-5.9 0v-17.1a1.916 1.916 0 00.98-1.668v-1.046h2.09v1.046a1.905 1.905 0 00.99 1.668v17.1H11.7zm8.98-19.811v1.046a.063.063 0 01-.06.062h-3.94a.063.063 0 01-.06-.062v-1.046h4.06zm9.85 0v1.046a.063.063 0 01-.06.062h-3.94a.063.063 0 01-.06-.062v-1.046h4.06zm9.85 0v1.046a.063.063 0 01-.06.062h-3.94a.063.063 0 01-.06-.062v-1.046h4.06zM1.85 17.189L28.5 1.966l26.65 15.223v1.5H1.85v-1.5zm1.97 3.341h49.36v2.092H3.82V20.53zm7.01 3.937v1.046a.057.057 0 01-.06.062H6.83a.063.063 0 01-.06-.062v-1.046h4.06zM7.76 27.42h2.09v16.858H7.76V27.42zm47.39 24.734H1.85v-2.092h53.3v2.092zm-1.97-3.938H3.82v-2.092h49.36v2.092zm-6.03-3.938V27.42h2.09v16.858h-2.09z" fill-rule="evenodd"/></symbol><symbol viewBox="0 0 47 44" id="services3" xmlns="http://www.w3.org/2000/svg"><path d="M42.99 8.321H31.57V5.93a2.4 2.4 0 001.48-1.487 2.464 2.464 0 00-1.43-3.128 25.728 25.728 0 00-16.24 0 2.464 2.464 0 00-1.43 3.129 2.382 2.382 0 001.48 1.486v2.391H4.01A4.066 4.066 0 000 12.43v27.461A4.066 4.066 0 004.01 44h38.98A4.066 4.066 0 0047 39.891V12.43a4.066 4.066 0 00-4.01-4.109zM15.9 2.783a24.226 24.226 0 0115.2 0 .89.89 0 01.52 1.131.863.863 0 01-.81.586.806.806 0 01-.29-.053 22.579 22.579 0 00-14.04 0 .856.856 0 01-1.1-.532.891.891 0 01.52-1.132zm1.05 3.148l.05-.016a21.083 21.083 0 0113 0l.05.015v2.391h-13.1v-2.39zm-15.43 6.5a2.524 2.524 0 012.49-2.548h38.98a2.524 2.524 0 012.49 2.548v7.489a9.108 9.108 0 01-8.99 9.206H26.7v-.884a2.419 2.419 0 00-2.39-2.445h-1.62a2.419 2.419 0 00-2.39 2.445v.884h-9.79a9.108 9.108 0 01-8.99-9.206v-7.49zm23.65 17.475a.869.869 0 01-.86.884h-1.62a.878.878 0 01-.87-.884v-1.664a.878.878 0 01.87-.884h1.62a.869.869 0 01.86.884v1.664zm-3.35 2.279a2.362 2.362 0 00.87.165h1.62a2.272 2.272 0 00.86-.165v1.05a.87.87 0 01-.86.884h-1.62a.878.878 0 01-.87-.884v-1.05zm23.66 7.707a2.524 2.524 0 01-2.49 2.548H4.01a2.524 2.524 0 01-2.49-2.548V25.5a10.469 10.469 0 008.99 5.188h9.79v2.549a2.419 2.419 0 002.39 2.444h1.62a2.419 2.419 0 002.39-2.444v-2.549h9.79a10.469 10.469 0 008.99-5.188v14.394z" fill-rule="evenodd"/></symbol><symbol class="msvg-inline--fa mfa-times mfa-w-11" viewBox="0 0 352 512" id="times" xmlns="http://www.w3.org/2000/svg"><path d="M242.72 256l100.07-100.07c12.28-12.28 12.28-32.19 0-44.48l-22.24-22.24c-12.28-12.28-32.19-12.28-44.48 0L176 189.28 75.93 89.21c-12.28-12.28-32.19-12.28-44.48 0L9.21 111.45c-12.28 12.28-12.28 32.19 0 44.48L109.28 256 9.21 356.07c-12.28 12.28-12.28 32.19 0 44.48l22.24 22.24c12.28 12.28 32.2 12.28 44.48 0L176 322.72l100.07 100.07c12.28 12.28 32.2 12.28 44.48 0l22.24-22.24c12.28-12.28 12.28-32.19 0-44.48L242.72 256z"/></symbol></svg>